<svg width="1129" height="301" viewBox="0 0 1129 301" fill="none" xmlns="http://www.w3.org/2000/svg">
<g clip-path="url(#clip0_1_2)">
<path d="M0.0371094 0.432566C78.7591 -0.499431 159.651 0.351402 238.497 0.439402C262.852 22.4404 289.439 49.2726 313.25 72.2246L313.241 301.014C278.874 300.356 242.196 300.965 207.658 300.964L0.0498047 300.961L0.0371094 0.432566ZM50.5078 250.835L107.061 250.854L107.06 114.875L130.191 96.5439L189.489 96.5478L206.657 112.998L206.631 175.602L206.652 250.842L263.457 250.839L263.451 94.2548L217.901 50.5292L123.343 50.5234C113.928 57.9574 104.658 65.5741 95.54 73.3691L95.5215 50.5429L50.5732 50.5205L50.5078 250.835Z" fill="url(#paint0_linear_1_2)"/>
<path d="M410.343 58.4357C456.429 57.5347 505.867 58.2847 552.167 58.4457C570.639 74.4967 590.818 94.5377 609.225 111.453L609.286 204.33L419.42 204.429L419.467 222.469L442.84 245.963L530.696 245.929L607.811 245.877C606.779 263.171 606.836 283.699 606.31 301.375L409.49 301.451C391.798 284.682 370.33 262.641 353.301 245.11C352.285 203.018 354.161 154.498 354.24 111.531C372.828 94.2917 391.458 75.1577 410.343 58.4357ZM419.422 135.616L419.478 155.941L521.316 155.931L543.336 155.908L543.285 136.058C535.788 128.699 526.782 119.314 519.18 112.331L442.813 112.275L419.422 135.616Z" fill="url(#paint1_linear_1_2)"/>
<path d="M877.1 58.3181C915.56 57.6601 955.68 58.2281 994.25 58.2211C1039.05 58.0601 1083.84 58.1231 1128.64 58.4121V110.06C1072.94 156.193 1014.63 202.83 958.12 248.094C981.4 248.651 1006.89 248.187 1030.35 248.198C1062.34 248.337 1094.33 248.272 1126.33 248.002L1126.41 293.782C1126.51 296.506 1126.69 297.596 1125.98 300.314C1123.04 301.955 897.07 301.225 872.05 301.289L872 245.709C915.04 209.211 959.75 174.201 1003.04 137.949C1013.3 129.353 1024.23 120.155 1034.92 112.203L877.15 112.282L877.1 58.3181Z" fill="url(#paint2_linear_1_2)"/>
<path d="M649.026 0.0329985C671.526 -0.380001 695.365 -0.000990985 717.965 9.0152e-06L718.08 57.7789L831.08 57.7409L831.02 111.169C796.56 110.027 752.78 110.72 717.98 111.205L717.9 238.057L725.06 244.908L773.38 244.918C792.92 244.972 812.46 244.927 832 244.783L832.12 300.921L691.08 300.943C676.93 287.773 663.32 273.891 649 260.751L649.026 0.0329985Z" fill="url(#paint3_linear_1_2)"/>
</g>
<defs>
<linearGradient id="paint0_linear_1_2" x1="151.849" y1="0.358049" x2="153.361" y2="299.914" gradientUnits="userSpaceOnUse">
<stop stop-color="#9C9C9C"/>
<stop offset="1" stop-color="#D7D7D7"/>
</linearGradient>
<linearGradient id="paint1_linear_1_2" x1="477.22" y1="58.2896" x2="478.429" y2="300.562" gradientUnits="userSpaceOnUse">
<stop stop-color="#9C9C9C"/>
<stop offset="1" stop-color="#D7D7D7"/>
</linearGradient>
<linearGradient id="paint2_linear_1_2" x1="996.391" y1="58.2895" x2="997.598" y2="300.508" gradientUnits="userSpaceOnUse">
<stop stop-color="#9C9C9C"/>
<stop offset="1" stop-color="#D7D7D7"/>
</linearGradient>
<linearGradient id="paint3_linear_1_2" x1="737.757" y1="-7.63252" x2="740.482" y2="299.798" gradientUnits="userSpaceOnUse">
<stop stop-color="#9C9C9C"/>
<stop offset="1" stop-color="#D7D7D7"/>
</linearGradient>
<clipPath id="clip0_1_2">
<rect width="1129" height="301" fill="white"/>
</clipPath>
</defs>
</svg>
